Coordinates
version=1
nRows=33
nColumns=30
inDegrees=yes

Units are S.I. units (second, meters, Newtons, ...)
Angles are in degrees.

endheader
time	floatyaw	floatroll	floatpitch	floatx	floaty	floatz	pro_sup_l	deviation_l	flexion_l	cmc_flexion_l	cmc_abduction_l	mp_flexion_l	ip_flexion_l	2mcp_flexion_l	2mcp_abduction_l	2pm_flexion_l	2md_flexion_l	3mcp_flexion_l	3mcp_abduction_l	3pm_flexion_l	3md_flexion_l	4mcp_flexion_l	4mcp_abduction_l	4pm_flexion_l	4md_flexion_l	5mcp_flexion_l	5mcp_abduction_l	5pm_flexion_l	5md_flexion_l
-0.495000	-0.679314	-3.115271	87.889519	0.023189	-0.206545	0.040935	86.251979	9.836822	1.279071	10.987194	9.051330	-15.227081	-18.384204	27.702830	6.292194	27.207408	15.888909	14.943539	4.566262	32.555612	19.622717	1.500329	-2.504597	51.859037	26.415992	-1.978023	-7.888352	46.307186	24.490087
-0.485000	-0.679314	-3.115271	87.889519	0.028211	-0.204268	0.045441	86.776169	10.994878	1.624316	10.200000	9.486573	-15.063900	-17.975702	29.185535	6.341283	26.773460	15.260593	16.521254	4.550413	32.094910	19.368370	2.867784	-2.388568	51.314936	26.294530	-0.766135	-7.931525	45.762737	24.005390
-0.475000	-0.679314	-3.115271	87.889519	0.033512	-0.202174	0.050195	87.371920	12.094469	1.907356	9.468615	9.937116	-14.938239	-17.664456	30.609330	6.447790	26.455745	14.721716	17.999087	4.551515	31.756999	19.168762	4.059244	-2.308789	50.830092	26.305109	0.198087	-7.933990	45.398985	23.666783
-0.465000	-0.679314	-3.115271	87.889519	0.038990	-0.200359	0.055240	88.058550	13.128767	2.135243	8.805499	10.442235	-14.861882	-17.453445	31.884185	6.626747	26.283597	14.338079	19.309685	4.590317	31.535647	19.046234	5.028836	-2.270152	50.445415	26.453983	0.849571	-7.927762	45.194052	23.504967
-0.455000	-0.679314	-3.115271	87.889519	0.044579	-0.198851	0.060583	88.864999	14.109159	2.330231	8.233179	11.020125	-14.841059	-17.346676	32.962619	6.876910	26.267404	14.144822	20.441577	4.677097	31.415035	19.013207	5.811182	-2.270225	50.173092	26.711908	1.165955	-7.948317	45.149141	23.544817
-0.445000	-0.679314	-3.115271	87.889519	0.050265	-0.197615	0.066182	89.811864	15.058860	2.529642	7.761080	11.671833	-14.869626	-17.334833	33.850968	7.180520	26.390567	14.134409	21.440543	4.809864	31.371907	19.070759	6.506030	-2.300455	49.990825	27.030547	1.187202	-8.022443	45.270849	23.794868
-0.435000	-0.679314	-3.115271	87.889519	0.056065	-0.196588	0.071955	90.896952	15.999379	2.778751	7.370175	12.393621	-14.929125	-17.390459	34.593874	7.509190	26.615137	14.264050	22.385576	4.976844	31.380264	19.210864	7.237611	-2.349962	49.851355	27.364783	1.008148	-8.161094	45.549294	24.238415
-0.425000	-0.679314	-3.115271	87.889519	0.061996	-0.195721	0.077814	92.091587	16.937652	3.121779	7.013425	13.184795	-14.995332	-17.473932	35.242487	7.831710	26.897655	14.477255	23.349908	5.160802	31.417834	19.420742	8.107243	-2.409202	49.702852	27.687324	0.750952	-8.358928	45.942385	24.827930
-0.415000	-0.679314	-3.115271	87.889519	0.068051	-0.195002	0.083688	93.348151	17.861113	3.595618	6.630430	14.046591	-15.046580	-17.544953	35.824483	8.120575	27.207873	14.727981	24.366116	5.343092	31.473275	19.686962	9.162893	-2.471627	49.510583	27.989019	0.531927	-8.597807	46.378465	25.487654
-0.405000	-0.679314	-3.115271	87.889519	0.074200	-0.194457	0.089537	94.614263	18.742582	4.226933	6.167298	14.978580	-15.069046	-17.572895	36.331927	8.356563	27.540946	14.995495	25.412344	5.507000	31.551551	19.998365	10.398646	-2.533582	49.270182	28.269874	0.438584	-8.851219	46.779686	26.128478
-0.395000	-0.679314	-3.115271	87.889519	0.080395	-0.194131	0.095351	95.847623	19.550998	5.030016	5.592337	15.980517	-15.057658	-17.542466	36.731777	8.531439	27.916465	15.284424	26.424873	5.640831	31.673771	20.348608	11.776640	-2.593828	49.008207	28.531902	0.526540	-9.089401	47.092527	26.672363
-0.385000	-0.679314	-3.115271	87.889519	0.086592	-0.194069	0.101141	97.026644	20.262078	6.003026	4.903169	17.058775	-15.014358	-17.454738	36.990229	8.648270	28.365192	15.613312	27.328258	5.740569	31.869387	20.738499	13.251129	-2.653508	48.772446	28.780293	0.832529	-9.286393	47.305354	27.075828
-0.375000	-0.679314	-3.115271	87.889519	0.092752	-0.194305	0.106916	98.154330	20.864998	7.124040	4.125419	18.228178	-14.945525	-17.324343	37.095433	8.718964	28.910737	15.999631	28.066936	5.810818	32.162666	21.175834	14.779673	-2.716092	48.617559	29.028981	1.387476	-9.428110	47.443185	27.340580
-0.365000	-0.679314	-3.115271	87.889519	0.098833	-0.194851	0.112665	99.255102	21.364102	8.351940	3.304265	19.502799	-14.858859	-17.172976	37.066520	8.759918	29.554849	16.448172	28.624239	5.862797	32.559472	21.670211	16.322957	-2.786462	48.589847	29.301246	2.214222	-9.517457	47.546853	27.506266
-0.355000	-0.679314	-3.115271	87.889519	0.104783	-0.195699	0.118355	100.365841	21.776077	9.635644	2.490653	20.880653	-14.759861	-17.020398	36.945852	8.787436	30.273102	16.946878	29.022616	5.909665	33.041919	22.224835	17.844891	-2.869095	48.713103	29.620783	3.310423	-9.572578	47.651874	27.630306
-0.345000	-0.679314	-3.115271	87.889519	0.110552	-0.196819	0.123941	101.523781	22.123885	10.928502	1.726682	22.334345	-14.649288	-16.876757	36.779921	8.814228	31.024000	17.471805	29.307911	5.961069	33.575422	22.831841	19.319592	-2.966166	48.979453	29.998635	4.634395	-9.618319	47.777196	27.765281
-0.335000	-0.679314	-3.115271	87.889519	0.116096	-0.198169	0.129385	102.755176	22.429878	12.199325	1.036952	23.814955	-14.523303	-16.740574	36.599073	8.847481	31.768055	17.999283	29.527265	6.019423	34.124961	23.475837	20.740000	-3.076374	49.350891	30.426109	6.111465	-9.675542	47.924335	27.943332
-0.325000	-0.679314	-3.115271	87.889519	0.121386	-0.199710	0.134664	104.069012	22.711058	13.433179	0.429982	25.266082	-14.376608	-16.603542	36.406403	8.888442	32.486310	18.518663	29.712210	6.079531	34.670283	24.142940	22.118241	-3.194681	49.773371	30.879267	7.659475	-9.753978	48.082902	28.172510
-0.315000	-0.679314	-3.115271	87.889519	0.126404	-0.201416	0.139764	105.457619	22.978032	14.622719	-0.093156	26.639390	-14.206581	-16.458679	36.181828	8.933356	33.186487	19.037231	29.874596	6.131472	35.210160	24.827391	23.474382	-3.312984	50.198239	31.331908	9.214935	-9.851445	48.239583	28.444380
-0.305000	-0.679314	-3.115271	87.889519	0.131137	-0.203279	0.144674	106.901924	23.236582	15.757568	-0.530833	27.905086	-14.015602	-16.306287	35.900039	8.975437	33.892623	19.573368	30.015015	6.165158	35.754347	25.530034	24.820211	-3.421778	50.601899	31.768712	10.743232	-9.958307	48.388934	28.746781
-0.295000	-0.679314	-3.115271	87.889519	0.135577	-0.205301	0.149374	108.376813	23.489327	16.819284	-0.879402	29.055461	-13.810076	-16.154212	35.553271	9.007359	34.625558	20.142259	30.136370	6.174425	36.310941	26.250217	26.149124	-3.512604	50.995299	32.191149	12.231750	-10.063725	48.542863	29.074059
-0.285000	-0.679314	-3.115271	87.889519	0.139719	-0.207489	0.153837	109.853645	23.736020	17.783892	-1.137608	30.102369	-13.597298	-16.013310	35.166218	9.023614	35.387561	20.744010	30.253144	6.159017	36.879076	26.978472	27.438976	-3.580448	51.418592	32.613919	13.676356	-10.160299	48.733891	29.430397
-0.275000	-0.679314	-3.115271	87.889519	0.143562	-0.209844	0.158030	111.300717	23.973235	18.628397	-1.311437	31.070054	-13.382918	-15.892040	34.794106	9.022227	36.160459	21.362390	30.390670	6.124099	37.451645	27.696739	28.665726	-3.625071	51.922617	33.055267	15.071630	-10.245423	49.008698	29.826876
-0.265000	-0.679314	-3.115271	87.889519	0.147104	-0.212358	0.161919	112.684750	24.195298	19.336736	-1.414798	31.985057	-13.170779	-15.793702	34.504766	9.005547	36.917014	21.975217	30.575757	6.078066	38.025139	28.386825	29.818851	-3.650789	52.545974	33.527430	16.408855	-10.319930	49.413492	30.275418
-0.255000	-0.679314	-3.115271	87.889519	0.150338	-0.215006	0.165468	113.975436	24.397009	19.903229	-1.465600	32.866249	-12.964482	-15.717142	34.354797	8.980063	37.637378	22.569971	30.825622	6.029932	38.609257	29.041422	30.909333	-3.665045	53.299890	34.032387	17.680316	-10.386005	49.978131	30.782650
-0.245000	-0.679314	-3.115271	87.889519	0.153253	-0.217752	0.168651	115.151931	24.576641	20.333824	-1.480057	33.718677	-12.768582	-15.659560	34.372282	8.955316	38.320652	23.155363	31.142518	5.987260	39.229489	29.670474	31.966451	-3.676534	54.168660	34.564299	18.885538	-10.446042	50.707499	31.346024
-0.235000	-0.679314	-3.115271	87.889519	0.155844	-0.220557	0.171455	116.207347	24.736783	20.645387	-1.468371	34.533255	-12.588229	-15.619637	34.553184	8.941931	38.985128	23.761666	31.516482	5.954917	39.919879	30.299337	33.025782	-3.693396	55.123205	35.116244	20.033935	-10.502716	51.584467	31.953977
-0.225000	-0.679314	-3.115271	87.889519	0.158117	-0.223390	0.173889	117.147353	24.881786	20.862657	-1.433808	35.291191	-12.427986	-15.599700	34.870450	8.948897	39.656899	24.428012	31.932466	5.934511	40.708429	30.960132	34.114345	-3.721683	56.136795	35.686636	21.139899	-10.559312	52.581021	32.590092
-0.215000	-0.679314	-3.115271	87.889519	0.160090	-0.226227	0.175983	117.982902	25.013212	21.012641	-1.375898	35.970317	-12.291272	-15.605940	35.289210	8.980744	40.352971	25.181837	32.375877	5.924410	41.602434	31.680701	35.239227	-3.764308	57.192314	36.281160	22.212187	-10.619103	53.668459	33.238423
-0.205000	-0.679314	-3.115271	87.889519	0.161783	-0.229039	0.177775	118.722556	25.126810	21.117012	-1.296682	36.551007	-12.181211	-15.646131	35.780371	9.036089	41.068961	26.022060	32.833985	5.920471	42.582621	32.475692	36.384726	-3.820753	58.279119	36.909079	23.245668	-10.683476	54.819790	33.886631
-0.195000	-0.679314	-3.115271	87.889519	0.163216	-0.231779	0.179309	119.371048	25.213969	21.184526	-1.206923	37.020070	-12.102732	-15.725608	36.327730	9.108906	41.779351	26.917788	33.295740	5.917626	43.610790	33.342398	37.519710	-3.887710	59.386268	37.576687	24.223241	-10.749941	56.006280	34.526345
-0.185000	-0.679314	-3.115271	87.889519	0.164403	-0.234383	0.180624	119.935251	25.267067	21.206859	-1.128650	37.371037	-12.065180	-15.843583	36.927859	9.192461	42.450231	27.824668	33.753910	5.912063	44.647115	34.261246	38.611893	-3.960493	60.500225	38.282433	25.127521	-10.811765	57.196280	35.152994
-0.175000	-0.679314	-3.115271	87.889519	0.165368	-0.236776	0.181762	120.431300	25.285095	21.161162	-1.092159	37.600148	-12.083894	-15.992098	37.585124	9.283582	43.056138	28.707693	34.209854	5.903152	45.666357	35.199280	39.641497	-4.034584	61.609114	39.016553	25.953574	-10.860018	58.361367	35.767095
